# xmcd
#
# Track frame offsets: 
#        150
#        13947
#        29195
#        42362
#        60265
#        77920
#        93420
#        111917
#        125050
#        141467
#
# Disc length: 2122 seconds
#
# Revision: 6
# Processed by: cddbd v1.5.1PL0 Copyright (c) Steve Scherf et al.
# Submitted via: ExactAudioCopy v0.95a5
#
DISCID=9108480a
DTITLE=Collin Raye - Extremes
DYEAR=1994
DGENRE=Country
TTITLE0=That's My Story
TTITLE1=Man Of My Word
TTITLE2=My Kind Of Girl
TTITLE3=Little Rock
TTITLE4=A Bible And A Bus Ticket Home
TTITLE5=Nothin' A Little Love Won't Cure
TTITLE6=If I Were You
TTITLE7=To The Border And Beyond
TTITLE8=Angel Of No Mercy
TTITLE9=Dreaming My Dreams With You
EXTD=
EXTT0=
EXTT1=
EXTT2=
EXTT3=
EXTT4=
EXTT5=
EXTT6=
EXTT7=
EXTT8=
EXTT9=
PLAYORDER=
